<svg height="415pt" viewBox="0 -4 415.99449 415" width="415pt" xmlns="http://www.w3.org/2000/svg"><path d="m277.367188 8.5c-18.933594 0-37.226563 6.863281-51.488282 19.320312l-104.085937 90.886719c-22.121094 22.117188-37.949219 49.734375-45.855469 80l-35.9375 104.03125h272l-35.566406-108.519531c-8.121094-32.472656-6.808594-66.589844 3.773437-98.34375l15.5625-42.761719 24.230469 19.386719 16 34.910156 56-10.910156-56.703125-62.402344c-14.84375-16.308594-35.875-25.605468-57.929687-25.597656zm0 0" fill="#e06661"/><path d="m48 302.738281h256c22.089844 0 40 17.910157 40 40v16c0 22.089844-17.910156 40-40 40h-256c-22.089844 0-40-17.910156-40-40v-16c0-22.089843 17.910156-40 40-40zm0 0" fill="#ebebeb"/><path d="m408 104.5c0 26.507812-21.492188 48-48 48s-48-21.492188-48-48c0-26.511719 21.492188-48 48-48s48 21.488281 48 48zm0 0" fill="#ebebeb"/><path d="m40 302.738281h272l-7.289062-22.238281h-257.023438zm0 0" fill="#d3605c"/><path d="m360 48.5c-.375 0-.734375.046875-1.105469.054688-.183593-.375-.398437-.730469-.636719-1.070313l-17.042968-18.746094c-31.601563-34.765625-85.214844-37.851562-120.597656-6.945312l-104.480469 91.257812c-23.003907 22.96875-39.484375 51.636719-47.761719 83.070313l-34.847656 100.847656c-19.941406 6.335938-33.5000002 24.839844-33.527344 45.761719v16c.0273438 26.5 21.5 47.972656 48 48h256c26.5-.027344 47.972656-21.5 48-48v-16c-.027344-20.898438-13.554688-39.386719-33.464844-45.734375l-34.34375-104.714844c-7.757812-30.921875-6.53125-63.417969 3.535156-93.671875l11.746094-32.277344 12.304688 9.839844c-12.816406 21.878906-9.3125 49.644531 8.539062 67.652344 17.851563 18.011719 45.582032 21.761719 67.578125 9.140625 21.992188-12.621094 32.746094-38.457032 26.207031-62.953125-6.542968-24.5-28.742187-41.535157-54.101562-41.511719zm-24 294.230469v16c0 17.671875-14.328125 32-32 32h-256c-17.671875 0-32-14.328125-32-32v-16c0-17.671875 14.328125-32 32-32h256c17.671875 0 32 14.328125 32 32zm-35.199219-295.832031c-2.011719-1.609376-4.675781-2.148438-7.15625-1.453126-2.480469.695313-4.476562 2.542969-5.355469 4.964844l-15.632812 42.960938c-11.136719 33.367187-12.476562 69.230468-3.855469 103.335937l32.160157 98.023438h-249.761719l32.480469-93.976563c7.484374-28.71875 22.449218-54.945312 43.367187-76l104.097656-90.910156c28.824219-25.171875 72.492188-22.65625 98.230469 5.664062l11.34375 12.480469c-7.03125 2.597657-13.46875 6.578125-18.933594 11.710938zm59.199219 97.601562c-22.089844 0-40-17.910156-40-40 0-22.09375 17.910156-40 40-40s40 17.90625 40 40c-.027344 22.078125-17.917969 39.972656-40 40zm0 0"/></svg>